# xmcd CD database file
#
# Track frame offsets:
#	150
#	18402
#	34407
#	55100
#	84547
#	116997
#	138882
#	156399
#	170876
#	191898
#	216635
#	230663
#	251371
#	274729
#	289979
#	308751
#
# Disc length: 4444 seconds
#
# Revision: 0
# Processed by: cddbd v1.5.1PL2 Copyright (c) Steve Scherf et al.
# Submitted via: NeoAudio 9.9.9
#
DISCID=fa115a10
DTITLE=All Stars 2000 - Shocking Blues
DYEAR=2000
DGENRE=Blues
TTITLE0=Steve Vai - Blowfish
TTITLE1=Smokin' Joe Kubek - Roll Of The Dice
TTITLE2=Lonnie Mack - Satisfy Susie
TTITLE3=Jimi Hendrix - Jelly 292
TTITLE4=Jimmy Page - Prison Blues
TTITLE5=Frank Marino - Bottom Of The Barrel
TTITLE6=Roy Buckanan - 25 Miles
TTITLE7=Jeff Healey - My Little Girl
TTITLE8=Smokin' Joe Kubek - Worst Heartache
TTITLE9=Jimi Hendrix - Mannish Boy
TTITLE10=Jimmy Page - Liquid Mercury
TTITLE11=Frank Marino - All Along The Watchtower
TTITLE12=Roy Buchanan - That Did It
TTITLE13=Jeff Healey - Don't Let Your Chance Go By
TTITLE14=Lonnie Mack - Hound Dog Man
TTITLE15=Steve Vai - Hand On Heart
EXTD=YEAR: 2000
EXTT0=
EXTT1=
EXTT2=
EXTT3=
EXTT4=
EXTT5=
EXTT6=
EXTT7=
EXTT8=
EXTT9=
EXTT10=
EXTT11=
EXTT12=
EXTT13=
EXTT14=
EXTT15=
PLAYORDER=
